0
SECTION
2
HEADER
9
$INSUNITS
70
4
9
$ACADVER
1
AC1014
9
$HANDSEED
5
FFFF
0
ENDSEC
0
SECTION
2
TABLES
0
TABLE
2
VPORT
5
8
100
AcDbSymbolTable
0
ENDTAB
0
TABLE
2
LTYPE
5
5
100
AcDbSymbolTable
0
LTYPE
5
14
100
AcDbSymbolTableRecord
100
AcDbLinetypeTableRecord
2
BYBLOCK
70
0
0
LTYPE
5
15
100
AcDbSymbolTableRecord
100
AcDbLinetypeTableRecord
2
BYLAYER
70
0
0
LTYPE
5
16
100
AcDbSymbolTableRecord
100
AcDbLinetypeTableRecord
2
DASHED
70
0
3
Dashed __ __ __ __ __ __ __ __ __ __ __ __ __ _
72
65
73
2
40
0.75
49
0.5
74
0
49
-0.25
74
0
0
ENDTAB
0
TABLE
2
LAYER
5
2
100
AcDbSymbolTable
70
3
0
LAYER
5
50
100
AcDbSymbolTableRecord
100
AcDbLayerTableRecord
2
1
70
0
62
7
6
DASHED
0
LAYER
5
51
100
AcDbSymbolTableRecord
100
AcDbLayerTableRecord
2
0
70
0
62
7
6
CONTINUOUS
0
ENDTAB
0
TABLE
2
STYLE
5
3
100
AcDbSymbolTable
70
1
0
STYLE
5
11
100
AcDbSymbolTableRecord
100
AcDbTextStyleTableRecord
2
STANDARD
70
0
0
ENDTAB
0
TABLE
2
VIEW
5
6
100
AcDbSymbolTable
70
0
0
ENDTAB
0
TABLE
2
UCS
5
7
100
AcDbSymbolTable
70
0
0
ENDTAB
0
TABLE
2
APPID
5
9
100
AcDbSymbolTable
70
2
0
APPID
5
12
100
AcDbSymbolTableRecord
100
AcDbRegAppTableRecord
2
ACAD
70
0
0
ENDTAB
0
TABLE
2
DIMSTYLE
5
A
100
AcDbSymbolTable
70
1
0
ENDTAB
0
TABLE
2
BLOCK_RECORD
5
1
100
AcDbSymbolTable
70
1
0
BLOCK_RECORD
5
1F
100
AcDbSymbolTableRecord
100
AcDbBlockTableRecord
2
*MODEL_SPACE
0
BLOCK_RECORD
5
1B
100
AcDbSymbolTableRecord
100
AcDbBlockTableRecord
2
*PAPER_SPACE
0
ENDTAB
0
ENDSEC
0
SECTION
2
BLOCKS
0
BLOCK
5
20
100
AcDbEntity
100
AcDbBlockBegin
2
*MODEL_SPACE
0
ENDBLK
5
21
100
AcDbEntity
100
AcDbBlockEnd
0
BLOCK
5
1C
100
AcDbEntity
100
AcDbBlockBegin
2
*PAPER_SPACE
0
ENDBLK
5
1D
100
AcDbEntity
100
AcDbBlockEnd
0
ENDSEC
0
SECTION
2
ENTITIES
0
LINE
5
100
100
AcDbEntity
8
0
100
AcDbLine
10
-22.000000327825546
20
-2.0000000298023224
30
0
11
30.000000447034836
21
-2.0000000298023224
31
0
0
ARC
5
101
100
AcDbEntity
8
0
100
AcDbCircle
10
-29.500000439584252
20
-2.5000000372529034
30
0
40
7.516648301193241
210
0
220
0
230
1
100
AcDbArc
50
-183.81407483429038
51
3.8140748342902824
0
LINE
5
102
100
AcDbEntity
8
0
100
AcDbLine
10
-37.000000551342964
20
-2.0000000298023224
30
0
11
-52.000000774860382
21
-2.0000000298023224
31
0
0
SPLINE
5
103
100
AcDbEntity
8
0
100
AcDbSpline
70
4
71
5
72
141
73
135
74
0
42
0.000000001
43
0.0000000001
44
0.0000000001
40
0
40
0
40
0
40
0
40
0
40
0
40
0.0076923076923076927
40
0.015384615384615385
40
0.023076923076923078
40
0.030769230769230771
40
0.038461538461538464
40
0.046153846153846156
40
0.053846153846153849
40
0.061538461538461542
40
0.069230769230769235
40
0.076923076923076927
40
0.08461538461538462
40
0.092307692307692313
40
0.10000000000000001
40
0.1076923076923077
40
0.11538461538461539
40
0.12307692307692308
40
0.13076923076923078
40
0.13846153846153847
40
0.14615384615384616
40
0.15384615384615385
40
0.16153846153846155
40
0.16923076923076924
40
0.17692307692307693
40
0.18461538461538463
40
0.19230769230769232
40
0.20000000000000001
40
0.2076923076923077
40
0.2153846153846154
40
0.22307692307692309
40
0.23076923076923078
40
0.23846153846153847
40
0.24615384615384617
40
0.25384615384615383
40
0.2615384615384615
40
0.26923076923076916
40
0.27692307692307683
40
0.28461538461538449
40
0.29230769230769216
40
0.29999999999999982
40
0.30769230769230749
40
0.31538461538461515
40
0.32307692307692282
40
0.33076923076923048
40
0.33846153846153815
40
0.34615384615384581
40
0.35384615384615348
40
0.36153846153846114
40
0.36923076923076881
40
0.37692307692307647
40
0.38461538461538414
40
0.3923076923076918
40
0.39999999999999947
40
0.40769230769230713
40
0.4153846153846148
40
0.42307692307692246
40
0.43076923076923013
40
0.43846153846153779
40
0.44615384615384546
40
0.45384615384615312
40
0.46153846153846079
40
0.46923076923076845
40
0.47692307692307612
40
0.48461538461538378
40
0.49230769230769145
40
0.49999999999999911
40
0.50769230769230678
40
0.51538461538461444
40
0.52307692307692211
40
0.53076923076922977
40
0.53846153846153744
40
0.5461538461538451
40
0.55384615384615277
40
0.56153846153846043
40
0.5692307692307681
40
0.57692307692307576
40
0.58461538461538343
40
0.59230769230769109
40
0.59999999999999876
40
0.60769230769230642
40
0.61538461538461409
40
0.62307692307692175
40
0.63076923076922942
40
0.63846153846153708
40
0.64615384615384475
40
0.65384615384615241
40
0.66153846153846008
40
0.66923076923076774
40
0.67692307692307541
40
0.68461538461538307
40
0.69230769230769074
40
0.6999999999999984
40
0.70769230769230607
40
0.71538461538461373
40
0.7230769230769214
40
0.73076923076922906
40
0.73846153846153673
40
0.74615384615384439
40
0.75384615384615206
40
0.76153846153845972
40
0.76923076923076739
40
0.77692307692307505
40
0.78461538461538272
40
0.79230769230769038
40
0.79999999999999805
40
0.80769230769230571
40
0.81538461538461338
40
0.82307692307692104
40
0.83076923076922871
40
0.83846153846153637
40
0.84615384615384404
40
0.8538461538461517
40
0.86153846153845937
40
0.86923076923076703
40
0.8769230769230747
40
0.88461538461538236
40
0.89230769230769003
40
0.89999999999999769
40
0.90769230769230536
40
0.91538461538461302
40
0.92307692307692069
40
0.93076923076922835
40
0.93846153846153602
40
0.94615384615384368
40
0.95384615384615135
40
0.96153846153845901
40
0.96923076923076668
40
0.97692307692307434
40
0.98461538461538201
40
0.99230769230768967
40
1
40
1
40
1
40
1
40
1
40
1
41
1
41
1
41
1
41
1
41
1
41
1
41
1
41
1
41
1
41
1
41
1
41
1
41
1
41
1
41
1
41
1
41
1
41
1
41
1
41
1
41
1
41
1
41
1
41
1
41
1
41
1
41
1
41
1
41
1
41
1
41
1
41
1
41
1
41
1
41
1
41
1
41
1
41
1
41
1
41
1
41
1
41
1
41
1
41
1
41
1
41
1
41
1
41
1
41
1
41
1
41
1
41
1
41
1
41
1
41
1
41
1
41
1
41
1
41
1
41
1
41
1
41
1
41
1
41
1
41
1
41
1
41
1
41
1
41
1
41
1
41
1
41
1
41
1
41
1
41
1
41
1
41
1
41
1
41
1
41
1
41
1
41
1
41
1
41
1
41
1
41
1
41
1
41
1
41
1
41
1
41
1
41
1
41
1
41
1
41
1
41
1
41
1
41
1
41
1
41
1
41
1
41
1
41
1
41
1
41
1
41
1
41
1
41
1
41
1
41
1
41
1
41
1
41
1
41
1
41
1
41
1
41
1
41
1
41
1
41
1
41
1
41
1
41
1
41
1
41
1
41
1
41
1
41
1
41
1
41
1
41
1
41
1
41
1
41
1
41
1
10
-52.000000774860382
20
-2.0000000298023224
30
0
10
-52.10137263218904
20
-2.2877231560856406
30
0
10
-52.304229174082344
20
-2.8602584107785241
30
0
10
-52.608852483442384
20
-3.710328278221926
30
0
10
-53.015693826125514
20
-4.826287238852669
30
0
10
-53.524970740664415
20
-6.1918386041543041
30
0
10
-54.033760788092906
20
-7.5271584172639185
30
0
10
-54.539643118009664
20
-8.8305846994472077
30
0
10
-55.038572854135211
20
-10.099370846916113
30
0
10
-55.524501165110223
20
-11.329377623421941
30
0
10
-55.988897999839494
20
-12.51490386238223
30
0
10
-56.419087878318237
20
-13.650375742867372
30
0
10
-56.796596615621162
20
-14.731960511917542
30
0
10
-57.095608306306474
20
-15.759140012767404
30
0
10
-57.281101180824272
20
-16.736464104513086
30
0
10
-57.307916998961659
20
-17.674751939369806
30
0
10
-57.132351275006137
20
-18.584746573867797
30
0
10
-56.722279177149431
20
-19.471678416726906
30
0
10
-56.069059976952758
20
-20.328695428552678
30
0
10
-55.195116468532113
20
-21.133075564514179
30
0
10
-54.141860028630227
20
-21.854999617959049
30
0
10
-52.960009425014938
20
-22.464874278959272
30
0
10
-51.699443626139498
20
-22.940761925278576
30
0
10
-50.398173299748485
20
-23.276841441656245
30
0
10
-49.075064215247053
20
-23.488070500696345
30
0
10
-47.735532663569707
20
-23.60186872357783
30
0
10
-46.374995334725924
20
-23.652128134489566
30
0
10
-44.983289905135422
20
-23.672036450541086
30
0
10
-43.548470410388262
20
-23.68803898457719
30
0
10
-42.061398412151675
20
-23.711707325863209
30
0
10
-40.517225095665808
20
-23.740908070279932
30
0
10
-38.915446089499319
20
-23.765398813091075
30
0
10
-37.260394306562212
20
-23.77100434343712
30
0
10
-35.561576270018193
20
-23.744430748011808
30
0
10
-33.834023794171699
20
-23.677689271635632
30
0
10
-32.09876952682427
20
-23.572966656703688
30
0
10
-30.382902163768648
20
-23.446505687573968
30
0
10
-28.715781535913777
20
-23.324006107959626
30
0
10
-27.125526399162059
20
-23.236706922477328
30
0
10
-25.635511733533125
20
-23.217282628771638
30
0
10
-24.260601529352648
20
-23.295658028192459
30
0
10
-23.004097124785208
20
-23.495234933394947
30
0
10
-21.852848704057894
20
-23.82798706537297
30
0
10
-20.78052092706092
20
-24.29466666654362
30
0
10
-19.755277055645209
20
-24.887868052606915
30
0
10
-18.746423880837874
20
-25.594279236963679
30
0
10
-17.730772449942201
20
-26.397111814270424
30
0
10
-16.700928197414335
20
-27.278845108095105
30
0
10
-15.662993835218266
20
-28.221711509916862
30
0
10
-14.629380687256004
20
-29.20709761018372
30
0
10
-13.613211777542869
20
-30.215299772832832
30
0
10
-12.622006705055526
20
-31.22511798824744
30
0
10
-11.651806485007919
20
-32.213550566223027
30
0
10
-10.68074372391111
20
-33.155358797515966
30
0
10
-9.6755596863059772
20
-34.025540711468025
30
0
10
-8.5984125536785321
20
-34.801836554736553
30
0
10
-7.4138305349812095
20
-35.467347225645099
30
0
10
-6.0950312645512685
20
-36.012827129218927
30
0
10
-4.6319105314571152
20
-36.439801001316418
30
0
10
-3.0333475766861961
20
-36.76090212729035
30
0
10
-1.3211133570856706
20
-36.996114832613742
30
0
10
0.47423429175186016
20
-37.169981085063867
30
0
10
2.3181848852189297
20
-37.308464746891218
30
0
10
4.1769538680542881
20
-37.43586031631893
30
0
10
6.0218581853997941
20
-37.571922198111054
30
0
10
7.8347232209409503
20
-37.728313738926381
30
0
10
9.609755424481742
20
-37.907354537334207
30
0
10
11.349173360265981
20
-38.104817089881962
30
0
10
13.060227643049696
20
-38.311822094951488
30
0
10
14.751707476136248
20
-38.517066788190235
30
0
10
16.43057084995834
20
-38.708971522980796
30
0
10
18.098746684052745
20
-38.877717120425189
30
0
10
19.749320044432068
20
-39.01767546706688
30
0
10
21.364650492182381
20
-39.128604429380658
30
0
10
22.921788547026338
20
-39.212165396339529
30
0
10
24.396724925956303
20
-39.269198975301606
30
0
10
25.769149395416157
20
-39.296647754998951
30
0
10
27.026871916511659
20
-39.284755979837556
30
0
10
28.170679381829
20
-39.213845771071668
30
0
10
29.218202808609082
20
-39.05211353528901
30
0
10
30.196022081180573
20
-38.765208176582988
30
0
10
31.132090644363544
20
-38.325674140588987
30
0
10
32.048847722331828
20
-37.721265495259281
30
0
10
32.954035871305031
20
-36.966675714151613
30
0
10
33.843066325644436
20
-36.098329518280671
30
0
10
34.706530757077118
20
-35.161633695491894
30
0
10
35.5364932982406
20
-34.200036623544179
30
0
10
36.332357895675415
20
-33.244653643903732
30
0
10
37.109263964860311
20
-32.300328980467143
30
0
10
37.893362752706906
20
-31.350353582267573
30
0
10
38.710979076976493
20
-30.370155217211359
30
0
10
39.578996752385194
20
-29.338704728298328
30
0
10
40.496301771185792
20
-28.249645051031131
30
0
10
41.430985187729362
20
-27.125501546979574
30
0
10
42.322085552842942
20
-26.020548362999428
30
0
10
43.107159264333916
20
-25.002512987778399
30
0
10
43.745904980775123
20
-24.138504569086301
30
0
10
44.241657533561245
20
-23.480215003815839
30
0
10
44.672589041791241
20
-23.047136657541355
30
0
10
45.192261331267893
20
-22.81772826190803
30
0
10
45.948771231426903
20
-22.746390633801727
30
0
10
46.999378619540465
20
-22.777100459476785
30
0
10
48.296149721078834
20
-22.854213533377596
30
0
10
49.73540497055285
20
-22.928306909400341
30
0
10
51.190034208637229
20
-22.964297792050978
30
0
10
52.545575895029309
20
-22.946985134334437
30
0
10
53.74263160519596
20
-22.891694599749993
30
0
10
54.788336565480051
20
-22.838056760908035
30
0
10
55.718993411008306
20
-22.81442594459914
30
0
10
56.574209327379272
20
-22.814782247849937
30
0
10
57.36696298112625
20
-22.758769505744546
30
0
10
58.054759185868662
20
-22.487857622833207
30
0
10
58.580590910775527
20
-21.865422604264619
30
0
10
58.882005310627534
20
-20.99552319447751
30
0
10
58.977221423321268
20
-20.105753682760096
30
0
10
58.969180870996098
20
-19.268300577155518
30
0
10
58.969497388975213
20
-18.516624230987929
30
0
10
59.038911650349903
20
-17.816388192760083
30
0
10
59.166226766053327
20
-17.104578111171048
30
0
10
59.312421887321293
20
-16.309012369378536
30
0
10
59.441146152361696
20
-15.381191963602562
30
0
10
59.542388644261038
20
-14.312025019749065
30
0
10
59.619554790488138
20
-13.118497189866185
30
0
10
59.684280295736983
20
-11.835473227719921
30
0
10
59.748661280224063
20
-10.505977108449587
30
0
10
59.81724441668112
20
-9.1708983501579375
30
0
10
59.88675303010929
20
-7.8659406865137882
30
0
10
59.949407039514398
20
-6.6218834047542066
30
0
10
59.995145831219247
20
-5.4636876309892362
30
0
10
60.014100327332429
20
-4.4102277467033275
30
0
10
59.999472821343119
20
-3.4733927747426652
30
0
10
59.958349003867973
20
-2.8218564245938991
30
0
10
59.910449301749267
20
-2.3891684560043158
30
0
10
59.870939770042988
20
-2.1255780413962406
30
0
10
59.849290692207759
20
-2.0000000298023224
30
0
0
LINE
5
104
100
AcDbEntity
8
0
100
AcDbLine
10
59.849290692207759
20
-2.0000000298023224
30
0
11
45
21
-2.0000000298023224
31
0
0
ARC
5
105
100
AcDbEntity
8
0
100
AcDbCircle
10
37.500000223517425
20
-2.0394707335303428
30
0
40
7.5001036381967126
210
0
220
0
230
1
100
AcDbArc
50
-180.30153119027545
51
0.30153119027665387
0
ENDSEC
0
SECTION
2
OBJECTS
0
DICTIONARY
5
C
100
AcDbDictionary
3
ACAD_GROUP
350
D
3
ACAD_MLINESTYLE
350
17
0
DICTIONARY
5
D
100
AcDbDictionary
0
DICTIONARY
5
1A
330
C
100
AcDbDictionary
0
DICTIONARY
5
17
100
AcDbDictionary
0
ENDSEC
0
EOF
